<?xml version="1.0" encoding="UTF-8" standalone="no"?>
<svg
   xmlns:dc="http://purl.org/dc/elements/1.1/"
   xmlns:cc="http://creativecommons.org/ns#"
   xmlns:rdf="http://www.w3.org/1999/02/22-rdf-syntax-ns#"
   xmlns:svg="http://www.w3.org/2000/svg"
   xmlns="http://www.w3.org/2000/svg"
   viewBox="0 0 1333.3333 1333.3333"
   height="1333.3333"
   width="1333.3333"
   xml:space="preserve"
   id="svg2"
   version="1.1"><metadata
     id="metadata8"><rdf:RDF><cc:Work
         rdf:about=""><dc:format>image/svg+xml</dc:format><dc:type
           rdf:resource="http://purl.org/dc/dcmitype/StillImage" /></cc:Work></rdf:RDF></metadata><defs
     id="defs6"><linearGradient
       id="linearGradient28"
       spreadMethod="pad"
       gradientTransform="matrix(588.68384,511.73495,-511.73495,588.68384,205.65625,244.13281)"
       gradientUnits="userSpaceOnUse"
       y2="0"
       x2="1"
       y1="0"
       x1="0"><stop
         id="stop24"
         offset="0"
         style="stop-opacity:1;stop-color:#3bbb8a" /><stop
         id="stop26"
         offset="1"
         style="stop-opacity:1;stop-color:#4bafe7" /></linearGradient><clipPath
       id="clipPath38"
       clipPathUnits="userSpaceOnUse"><path
         id="path36"
         d="M 0,1000 H 1000 V 0 H 0 Z" /></clipPath></defs><g
     transform="matrix(1.3333333,0,0,-1.3333333,0,1333.3333)"
     id="g10"><g
       id="g12"><g
         id="g14"><g
           id="g20"><g
             id="g22"><path
               id="path30"
               style="fill:url(#linearGradient28);stroke:none"
               d="M 110,500 C 110,284.609 284.606,109.999 499.998,109.999 v 0 C 715.388,109.999 890,284.609 890,500 v 0 c 0,215.392 -174.612,390.001 -390.002,390.001 v 0 C 284.606,890.001 110,715.392 110,500" /></g></g></g></g><g
       id="g32"><g
         clip-path="url(#clipPath38)"
         id="g34"><g
           transform="translate(685.3926,433.1865)"
           id="g40"><path
             id="path42"
             style="fill:#ffffff;fill-opacity:1;fill-rule:nonzero;stroke:none"
             d="m 0,0 c 0.495,4.902 1.909,8.605 4.236,11.109 2.325,2.503 5.301,3.756 8.923,3.756 3.801,0 6.864,-1.234 9.19,-3.703 C 24.677,8.693 26.017,4.973 26.373,0 Z m 37.294,-6.633 c 2.093,1.084 3.144,3.455 3.144,7.113 0,3.943 -1.014,7.814 -3.039,11.615 -2.024,3.8 -5.07,6.9 -9.136,9.298 -4.066,2.396 -8.943,3.595 -14.624,3.595 -4.369,0 -8.349,-0.702 -11.934,-2.105 -3.588,-1.404 -6.607,-3.418 -9.056,-6.048 -2.452,-2.627 -4.317,-5.778 -5.594,-9.455 -1.281,-3.677 -1.918,-7.663 -1.918,-11.96 0,-9.129 2.592,-16.356 7.776,-21.685 5.187,-5.326 12.449,-7.991 21.793,-7.991 4.084,0 7.698,0.532 10.841,1.598 3.142,1.067 5.752,2.407 7.832,4.024 2.075,1.614 3.631,3.301 4.661,5.06 1.028,1.759 1.546,3.295 1.546,4.608 0,1.492 -0.464,2.647 -1.386,3.464 -0.923,0.816 -2.13,1.224 -3.624,1.224 -1.384,0 -2.451,-0.319 -3.198,-0.957 -1.809,-1.706 -3.283,-3.055 -4.421,-4.051 -1.136,-0.993 -2.38,-1.927 -3.728,-2.795 -1.352,-0.872 -2.743,-1.512 -4.181,-1.92 -1.441,-0.408 -3.03,-0.613 -4.77,-0.613 -2.594,0 -4.964,0.641 -7.112,1.919 -2.149,1.279 -3.873,3.179 -5.166,5.701 -1.3,2.52 -1.965,5.434 -2,8.736 h 28.45 c 3.799,0 6.747,0.542 8.844,1.625 m -67.641,21.925 c -1.491,3.053 -3.749,5.416 -6.765,7.085 -3.022,1.669 -6.446,2.505 -10.284,2.505 -3.944,0 -7.431,-0.792 -10.467,-2.372 -3.038,-1.579 -5.835,-4.057 -8.392,-7.433 v 1.758 c 0,1.742 -0.31,3.215 -0.932,4.423 -0.621,1.207 -1.45,2.112 -2.478,2.717 -1.03,0.604 -2.183,0.907 -3.464,0.907 -2.096,0 -3.745,-0.687 -4.952,-2.052 -1.208,-1.367 -1.812,-3.436 -1.812,-6.207 v -42.034 c 0,-2.844 0.672,-5.027 2.025,-6.554 1.347,-1.525 3.069,-2.291 5.165,-2.291 2.169,0 3.935,0.737 5.303,2.211 1.366,1.475 2.051,3.685 2.051,6.634 v 18.22 c 0,5.93 0.357,9.98 1.067,12.148 0.994,2.698 2.558,4.821 4.685,6.364 2.132,1.545 4.494,2.319 7.087,2.319 3.979,0 6.633,-1.272 7.967,-3.81 1.331,-2.539 1.995,-6.208 1.995,-11.001 v -24.24 c 0,-2.844 0.677,-5.027 2.026,-6.554 1.352,-1.525 3.105,-2.291 5.275,-2.291 2.13,0 3.861,0.746 5.194,2.238 1.329,1.491 1.997,3.695 1.997,6.607 V 1.651 c 0,3.199 -0.14,5.827 -0.425,7.885 -0.285,2.061 -0.907,3.979 -1.866,5.756 m -79.466,-22.376 c 0,-5.046 -0.658,-8.667 -1.969,-10.868 -1.141,-1.99 -2.923,-3.616 -5.357,-4.876 -2.431,-1.261 -5.088,-1.891 -7.965,-1.891 -2.7,0 -4.883,0.774 -6.554,2.317 -1.668,1.546 -2.501,3.419 -2.501,5.622 0,2.131 0.708,3.79 2.132,4.982 1.418,1.189 2.91,1.986 4.473,2.397 1.564,0.407 4.377,1.047 8.446,1.917 4.066,0.869 7.165,1.696 9.295,2.477 z m 14.171,-6.979 c 0.037,2.912 0.063,5.558 0.08,7.937 0.018,2.38 0.029,5.273 0.029,8.685 0,5.398 -0.758,9.731 -2.266,13 -1.508,3.265 -4.094,5.653 -7.752,7.165 -3.657,1.507 -8.682,2.264 -15.076,2.264 -5.719,0 -10.497,-0.781 -14.332,-2.344 -3.836,-1.563 -6.658,-3.553 -8.472,-5.968 -1.811,-2.414 -2.715,-4.901 -2.715,-7.459 0,-1.634 0.593,-2.974 1.785,-4.022 1.189,-1.048 2.597,-1.573 4.234,-1.573 1.813,0 2.993,0.33 3.544,0.987 0.547,0.657 1.49,2.015 2.821,4.077 1.331,2.058 2.931,3.604 4.795,4.635 1.865,1.028 4.645,1.544 8.34,1.544 4.297,0 7.128,-0.897 8.497,-2.69 1.366,-1.794 2.139,-4.609 2.317,-8.446 -3.056,-0.886 -5.886,-1.642 -8.496,-2.263 -2.612,-0.623 -5.746,-1.306 -9.403,-2.05 -3.66,-0.747 -5.951,-1.226 -6.873,-1.439 -4.404,-0.959 -7.869,-2.842 -10.391,-5.647 -2.52,-2.808 -3.783,-6.199 -3.783,-10.177 0,-2.948 0.763,-5.682 2.291,-8.206 1.529,-2.52 3.704,-4.517 6.529,-5.992 2.824,-1.474 6.097,-2.211 9.83,-2.211 4.081,0 7.769,0.685 11.054,2.052 3.284,1.366 6.687,3.418 10.201,6.151 1.633,-2.662 3.179,-4.695 4.636,-6.099 1.454,-1.402 2.93,-2.104 4.42,-2.104 1.778,0 3.366,0.613 4.771,1.837 1.401,1.227 2.103,2.586 2.103,4.077 0,0.852 -0.452,2.762 -1.357,5.728 -0.907,2.964 -1.361,5.814 -1.361,8.551 m -79.412,-0.534 c -1.242,-2.806 -2.893,-4.91 -4.952,-6.312 -2.062,-1.404 -4.298,-2.106 -6.717,-2.106 -4.048,0 -7.44,1.607 -10.174,4.823 -2.736,3.213 -4.102,7.714 -4.102,13.504 0,6.145 1.375,10.798 4.129,13.959 2.754,3.162 6.135,4.742 10.147,4.742 2.523,0 4.824,-0.738 6.903,-2.212 2.076,-1.474 3.701,-3.586 4.871,-6.339 1.173,-2.752 1.759,-6.046 1.759,-9.883 0,-3.978 -0.622,-7.371 -1.864,-10.176 m 4.264,35.91 c -3.767,2.307 -7.887,3.461 -12.361,3.461 -3.73,0 -7.069,-0.791 -10.018,-2.37 -2.946,-1.581 -5.789,-4.059 -8.521,-7.433 v 1.759 c 0,2.627 -0.65,4.643 -1.947,6.046 -1.297,1.403 -2.974,2.106 -5.035,2.106 -2.096,0 -3.748,-0.687 -4.952,-2.052 -1.21,-1.367 -1.811,-3.436 -1.811,-6.207 v -62.759 c 0,-3.161 0.441,-5.567 1.33,-7.218 0.888,-1.653 2.702,-2.478 5.433,-2.478 4.654,0 6.982,3.194 6.982,9.588 v 21.845 c 2.558,-3.232 5.244,-5.685 8.07,-7.352 2.824,-1.669 6.312,-2.505 10.469,-2.505 3.445,0 6.669,0.685 9.669,2.052 3.003,1.366 5.601,3.32 7.804,5.861 2.203,2.537 3.937,5.682 5.198,9.428 1.258,3.747 1.89,7.859 1.89,12.335 0,6.072 -1.094,11.329 -3.277,15.768 -2.184,4.441 -5.158,7.815 -8.923,10.125 m -68.173,1.117 c -2.88,1.563 -6.308,2.344 -10.285,2.344 -3.409,0 -6.517,-0.718 -9.321,-2.159 -2.806,-1.437 -5.436,-3.648 -7.885,-6.632 -1.705,2.948 -3.873,5.15 -6.5,6.607 -2.631,1.456 -5.775,2.184 -9.431,2.184 -3.515,0 -6.712,-0.711 -9.59,-2.13 -2.876,-1.421 -5.576,-3.641 -8.098,-6.661 v 1.385 c 0,2.344 -0.667,4.183 -2,5.515 -1.331,1.331 -2.99,1.999 -4.978,1.999 -2.06,0 -3.721,-0.71 -4.983,-2.131 -1.259,-1.422 -1.891,-3.501 -1.891,-6.234 v -41.61 c 0,-3.019 0.7,-5.301 2.105,-6.845 1.403,-1.545 3.203,-2.318 5.407,-2.318 2.238,0 4.041,0.773 5.406,2.318 1.368,1.544 2.052,3.826 2.052,6.845 v 19.659 c 0,6.11 0.756,10.798 2.266,14.067 1.509,3.266 4.644,4.901 9.402,4.901 2.38,0 4.119,-0.648 5.222,-1.946 1.1,-1.296 1.776,-2.955 2.024,-4.98 0.249,-2.026 0.372,-4.867 0.372,-8.525 v -23.176 c 0,-3.054 0.684,-5.345 2.053,-6.872 1.367,-1.525 3.151,-2.291 5.353,-2.291 2.272,0 4.104,0.766 5.489,2.291 1.386,1.527 2.076,3.818 2.076,6.872 v 19.339 c 0,6.215 0.533,10.548 1.598,13.001 0.959,1.918 2.299,3.444 4.022,4.582 1.723,1.135 3.545,1.705 5.461,1.705 2.381,0 4.159,-0.64 5.329,-1.919 1.174,-1.278 1.891,-2.859 2.157,-4.741 0.267,-1.885 0.402,-4.388 0.402,-7.514 v -24.453 c 0,-3.019 0.699,-5.301 2.103,-6.845 1.403,-1.545 3.205,-2.318 5.406,-2.318 2.275,0 4.102,0.766 5.491,2.291 1.384,1.527 2.074,3.818 2.074,6.872 V 3.304 c 0,5.647 -0.621,9.785 -1.862,12.415 -1.423,2.911 -3.569,5.147 -6.446,6.711 M -343.474,-7.084 c 0,-5.046 -0.659,-8.667 -1.97,-10.868 -1.139,-1.99 -2.924,-3.616 -5.354,-4.876 -2.435,-1.261 -5.09,-1.891 -7.965,-1.891 -2.703,0 -4.886,0.774 -6.553,2.317 -1.669,1.546 -2.506,3.419 -2.506,5.622 0,2.131 0.711,3.79 2.132,4.982 1.422,1.189 2.91,1.986 4.475,2.397 1.562,0.407 4.377,1.047 8.445,1.917 4.065,0.869 7.166,1.696 9.296,2.477 z m 14.17,-6.979 c 0.036,2.912 0.064,5.558 0.08,7.937 0.02,2.38 0.028,5.273 0.028,8.685 0,5.398 -0.757,9.731 -2.263,13 -1.513,3.265 -4.094,5.653 -7.751,7.165 -3.661,1.507 -8.687,2.264 -15.078,2.264 -5.721,0 -10.497,-0.781 -14.333,-2.344 -3.835,-1.563 -6.659,-3.553 -8.471,-5.968 -1.811,-2.414 -2.718,-4.901 -2.718,-7.459 0,-1.634 0.595,-2.974 1.787,-4.022 1.189,-1.048 2.602,-1.573 4.234,-1.573 1.811,0 2.994,0.33 3.545,0.987 0.546,0.657 1.491,2.015 2.822,4.077 1.332,2.058 2.931,3.604 4.796,4.635 1.865,1.028 4.644,1.544 8.338,1.544 4.296,0 7.131,-0.897 8.495,-2.69 1.367,-1.794 2.143,-4.609 2.319,-8.446 -3.054,-0.886 -5.886,-1.642 -8.497,-2.263 -2.612,-0.623 -5.748,-1.306 -9.404,-2.05 -3.658,-0.747 -5.951,-1.226 -6.872,-1.439 -4.404,-0.959 -7.869,-2.842 -10.389,-5.647 -2.522,-2.808 -3.781,-6.199 -3.781,-10.177 0,-2.948 0.762,-5.682 2.29,-8.206 1.524,-2.52 3.702,-4.517 6.525,-5.992 2.824,-1.474 6.101,-2.211 9.83,-2.211 4.084,0 7.768,0.685 11.057,2.052 3.282,1.366 6.686,3.418 10.2,6.151 1.634,-2.662 3.179,-4.695 4.637,-6.099 1.455,-1.402 2.927,-2.104 4.42,-2.104 1.776,0 3.367,0.613 4.768,1.837 1.402,1.227 2.103,2.586 2.103,4.077 0,0.852 -0.453,2.762 -1.356,5.728 -0.907,2.964 -1.361,5.814 -1.361,8.551 m -61.676,-6.181 -14.919,23.44 7.724,7.086 c 3.943,3.553 5.912,6.394 5.912,8.526 0,1.739 -0.603,3.186 -1.811,4.34 -1.207,1.155 -2.717,1.734 -4.528,1.734 -1.527,0 -2.823,-0.393 -3.889,-1.174 -1.066,-0.779 -2.611,-2.236 -4.634,-4.368 L -423.482,2.187 v 35.267 c 0,2.984 -0.657,5.238 -1.972,6.766 -1.312,1.527 -3.088,2.291 -5.324,2.291 -2.311,0 -4.088,-0.844 -5.33,-2.532 -1.244,-1.685 -1.864,-4.146 -1.864,-7.378 v -62.012 c 0,-2.912 0.639,-5.116 1.918,-6.607 1.278,-1.492 3.037,-2.238 5.276,-2.238 1.916,0 3.61,0.756 5.085,2.265 1.473,1.509 2.211,3.668 2.211,6.472 v 11.562 l 7.887,7.459 12.838,-21.098 c 1.633,-2.523 2.93,-4.262 3.89,-5.221 0.959,-0.958 2.327,-1.439 4.101,-1.439 2.059,0 3.72,0.665 4.983,1.998 1.261,1.332 1.889,3.152 1.889,5.461 0,0.817 -0.238,1.678 -0.718,2.584 -0.48,0.905 -1.269,2.23 -2.368,3.969 m 220.397,73.168 c 2.163,0 3.933,0.735 5.3,2.211 1.368,1.472 2.051,3.682 2.051,6.632 v 63.079 c 0,2.947 -0.675,5.159 -2.025,6.633 -1.349,1.473 -3.126,2.211 -5.326,2.211 -2.201,0 -3.951,-0.746 -5.248,-2.238 -1.297,-1.492 -1.944,-3.694 -1.944,-6.606 V 61.767 c 0,-2.842 0.665,-5.026 1.997,-6.552 1.333,-1.527 3.063,-2.291 5.195,-2.291 m -30.961,0 c 2.131,0 3.889,0.744 5.273,2.236 1.385,1.493 2.079,3.694 2.079,6.607 v 42.036 c 0,2.592 -0.694,4.616 -2.079,6.072 -1.384,1.456 -3.142,2.185 -5.273,2.185 -2.131,0 -3.863,-0.729 -5.195,-2.185 -1.333,-1.456 -1.997,-3.624 -1.997,-6.5 V 61.767 c 0,-2.842 0.664,-5.026 1.997,-6.552 1.332,-1.527 3.064,-2.291 5.195,-2.291 m -5.033,67.765 c 1.436,-1.243 3.168,-1.863 5.193,-1.863 1.952,0 3.64,0.63 5.062,1.891 1.419,1.26 2.13,3.01 2.13,5.247 0,2.309 -0.726,4.067 -2.184,5.276 -1.457,1.205 -3.127,1.809 -5.008,1.809 -1.953,0 -3.669,-0.665 -5.141,-1.996 -1.476,-1.332 -2.211,-3.028 -2.211,-5.089 0,-2.273 0.72,-4.031 2.159,-5.275 m -32.505,-40.596 c 0,-5.043 -0.657,-8.666 -1.97,-10.867 -1.138,-1.99 -2.923,-3.615 -5.356,-4.875 -2.431,-1.262 -5.085,-1.893 -7.963,-1.893 -2.701,0 -4.882,0.773 -6.553,2.319 -1.67,1.545 -2.506,3.416 -2.506,5.621 0,2.13 0.713,3.79 2.131,4.98 1.421,1.19 2.913,1.99 4.477,2.398 1.561,0.409 4.376,1.048 8.444,1.919 4.065,0.868 7.166,1.694 9.296,2.477 z m 14.172,-6.978 c 0.034,2.911 0.06,5.557 0.079,7.937 0.018,2.38 0.028,5.275 0.028,8.684 0,5.399 -0.755,9.73 -2.264,13 -1.512,3.267 -4.095,5.656 -7.754,7.166 -3.656,1.508 -8.682,2.264 -15.076,2.264 -5.718,0 -10.496,-0.782 -14.332,-2.344 -3.835,-1.563 -6.659,-3.552 -8.471,-5.967 -1.811,-2.416 -2.717,-4.901 -2.717,-7.459 0,-1.635 0.594,-2.975 1.786,-4.021 1.19,-1.05 2.601,-1.573 4.234,-1.573 1.812,0 2.994,0.328 3.544,0.986 0.55,0.657 1.492,2.015 2.824,4.075 1.333,2.06 2.929,3.603 4.795,4.635 1.861,1.03 4.643,1.545 8.337,1.545 4.299,0 7.128,-0.897 8.498,-2.69 1.366,-1.794 2.14,-4.608 2.317,-8.444 -3.056,-0.888 -5.886,-1.643 -8.498,-2.265 -2.609,-0.622 -5.747,-1.305 -9.403,-2.051 -3.659,-0.746 -5.949,-1.225 -6.874,-1.437 -4.402,-0.96 -7.866,-2.843 -10.386,-5.649 -2.524,-2.805 -3.783,-6.197 -3.783,-10.176 0,-2.947 0.762,-5.682 2.291,-8.204 1.526,-2.523 3.704,-4.52 6.525,-5.992 2.824,-1.476 6.101,-2.211 9.831,-2.211 4.085,0 7.769,0.683 11.055,2.05 3.284,1.367 6.686,3.417 10.199,6.153 1.637,-2.664 3.181,-4.697 4.638,-6.101 1.457,-1.402 2.93,-2.102 4.424,-2.102 1.773,0 3.362,0.612 4.766,1.837 1.401,1.226 2.105,2.584 2.105,4.075 0,0.852 -0.454,2.764 -1.361,5.727 -0.903,2.965 -1.357,5.817 -1.357,8.552 m -83.143,25.679 c 1.17,-1.278 1.889,-2.859 2.157,-4.742 0.264,-1.882 0.399,-4.387 0.399,-7.512 V 62.087 c 0,-3.02 0.698,-5.302 2.104,-6.847 1.403,-1.545 3.205,-2.316 5.409,-2.316 2.271,0 4.101,0.764 5.487,2.291 1.385,1.526 2.076,3.815 2.076,6.872 v 28.396 c 0,5.647 -0.619,9.784 -1.863,12.413 -1.422,2.912 -3.571,5.149 -6.447,6.713 -2.876,1.562 -6.304,2.345 -10.281,2.345 -3.409,0 -6.519,-0.721 -9.324,-2.158 -2.806,-1.438 -5.436,-3.65 -7.886,-6.634 -1.706,2.949 -3.869,5.15 -6.5,6.607 -2.628,1.455 -5.771,2.185 -9.43,2.185 -3.517,0 -6.712,-0.712 -9.588,-2.132 -2.876,-1.421 -5.578,-3.641 -8.098,-6.66 v 1.385 c 0,2.344 -0.667,4.182 -1.998,5.515 -1.334,1.332 -2.996,1.998 -4.983,1.998 -2.059,0 -3.72,-0.711 -4.982,-2.131 -1.26,-1.422 -1.891,-3.499 -1.891,-6.234 V 62.087 c 0,-3.02 0.702,-5.302 2.107,-6.847 1.4,-1.545 3.205,-2.316 5.405,-2.316 2.237,0 4.041,0.771 5.407,2.316 1.369,1.545 2.054,3.827 2.054,6.847 v 19.659 c 0,6.108 0.752,10.796 2.263,14.065 1.51,3.267 4.642,4.901 9.404,4.901 2.378,0 4.119,-0.649 5.22,-1.944 1.101,-1.298 1.775,-2.957 2.024,-4.982 0.249,-2.024 0.373,-4.867 0.373,-8.525 V 62.087 c 0,-3.057 0.685,-5.346 2.052,-6.872 1.368,-1.527 3.152,-2.291 5.355,-2.291 2.272,0 4.1,0.764 5.487,2.291 1.386,1.526 2.076,3.815 2.076,6.872 v 19.339 c 0,6.214 0.533,10.549 1.601,12.999 0.959,1.918 2.298,3.444 4.02,4.581 1.723,1.137 3.543,1.706 5.463,1.706 2.377,0 4.156,-0.64 5.328,-1.918 M -426.838,87.18 c 0.497,4.902 1.909,8.604 4.234,11.108 2.329,2.504 5.303,3.755 8.925,3.755 3.8,0 6.866,-1.234 9.191,-3.702 2.326,-2.469 3.665,-6.189 4.023,-11.161 z m 37.292,-6.634 c 2.097,1.083 3.145,3.455 3.145,7.113 0,3.943 -1.011,7.814 -3.038,11.614 -2.024,3.8 -5.07,6.9 -9.135,9.296 -4.067,2.398 -8.945,3.597 -14.625,3.597 -4.369,0 -8.346,-0.703 -11.935,-2.104 -3.587,-1.404 -6.606,-3.42 -9.054,-6.047 -2.453,-2.629 -4.318,-5.782 -5.594,-9.457 -1.279,-3.676 -1.92,-7.663 -1.92,-11.96 0,-9.129 2.593,-16.355 7.78,-21.684 5.186,-5.328 12.445,-7.99 21.79,-7.99 4.082,0 7.697,0.533 10.84,1.597 3.145,1.065 5.755,2.406 7.831,4.022 2.079,1.616 3.633,3.304 4.662,5.061 1.03,1.758 1.543,3.294 1.543,4.609 0,1.493 -0.459,2.646 -1.383,3.463 -0.924,0.818 -2.131,1.225 -3.624,1.225 -1.386,0 -2.45,-0.319 -3.195,-0.958 -1.811,-1.705 -3.285,-3.056 -4.42,-4.05 -1.139,-0.995 -2.381,-1.927 -3.731,-2.796 -1.349,-0.87 -2.745,-1.51 -4.182,-1.918 -1.438,-0.408 -3.028,-0.614 -4.769,-0.614 -2.593,0 -4.964,0.64 -7.114,1.918 -2.148,1.279 -3.87,3.179 -5.167,5.701 -1.296,2.522 -1.961,5.434 -1.997,8.737 h 28.447 c 3.803,0 6.749,0.54 8.845,1.625 M 40.45,79.667 c -8.512,8.513 -17.355,16.707 -25.872,25.214 -1.739,1.744 -3.136,3.627 -6.547,3.627 -3.873,0 -6.707,-3.014 -6.707,-6.927 0,-4.196 6.36,-8.848 8.927,-11.416 6.782,-6.783 13.784,-13.348 20.566,-20.13 2.038,-2.04 8.079,-8.928 11.201,-8.928 h 1.95 c 2.427,0 5.628,3.17 5.628,5.411 v 1.731 c 0,3.835 -6.774,9.047 -9.146,11.418 M -83.751,108.4 c -4.835,0 -9.239,-6.083 -11.958,-8.82 -6.866,-6.913 -13.999,-13.564 -20.89,-20.454 -3.447,-3.448 -9.144,-7.033 -9.144,-12.499 0,-3.37 3.181,-6.277 6.492,-6.277 h 0.434 c 2.994,0 4.869,2.379 6.441,3.95 8.66,8.44 17.316,16.882 25.867,25.432 3.702,3.704 9.148,7.404 9.254,12.824 0,2.755 -3.395,5.844 -6.496,5.844 m 126.637,63.527 c -3.165,0 -4.643,-1.873 -6.117,-3.626 -1.408,-1.672 -3.233,-3.33 -4.533,-4.993 -2.406,-3.079 -6.315,-7.395 -9.104,-10.159 -3,-2.976 -6.45,-6.781 -9.313,-9.953 -3.07,-3.407 -6.063,-6.506 -9.302,-9.743 -3.266,-3.264 -6.371,-6.369 -9.636,-9.632 -2.753,-2.753 -6.806,-6.99 -9.751,-9.293 -3.627,-2.833 -17.879,-15.977 -22.339,-15.977 h -0.648 c -4.372,0 -19.444,12.962 -22.892,15.857 -6.688,5.614 -13.572,12.731 -19.808,18.938 -6.484,6.453 -12.398,13.515 -18.832,19.912 -2.725,2.709 -6.865,7.265 -9.215,10.266 -1.323,1.693 -3.335,3.434 -4.585,5.156 -1.298,1.787 -3.185,3.247 -6.276,3.247 -3.144,0 -6.278,-3.015 -6.278,-6.278 v -1.081 c 0,-2.741 2.467,-5.166 3.953,-6.654 1.692,-1.693 3.154,-3.845 4.866,-5.523 1.159,-1.133 4.168,-4.384 5.035,-5.572 1.267,-1.745 3.484,-3.594 4.936,-5.452 2.716,-3.476 7.775,-7.416 10.215,-10.783 1.922,-2.646 7.682,-7.787 10.338,-10.441 8.164,-8.166 35.052,-35.227 48.326,-35.227 h 0.865 c 13.348,0 39.563,27.112 47.787,35.334 3.521,3.521 6.772,6.989 10.283,10.497 3.099,3.1 7.289,7.411 10.061,10.715 2.821,3.363 6.77,7.892 9.854,10.929 1.765,1.74 8.82,9.223 8.82,11.743 v 1.949 c 0,3.035 -3.466,5.844 -6.71,5.844 M 57.852,60.759 c 0,-3.333 -2.723,-6.055 -6.051,-6.055 h -177.353 c -3.331,0 -6.055,2.722 -6.055,6.055 v 109.013 c 0,3.332 2.724,6.058 6.055,6.058 H 51.801 c 3.328,0 6.051,-2.726 6.051,-6.058 z m -5.888,128.7 h -178.623 c -10.424,0 -18.952,-8.663 -18.952,-19.251 V 60.636 c 0,-10.587 8.528,-19.248 18.952,-19.248 H 51.964 c 10.423,0 18.953,8.661 18.953,19.248 v 109.572 c 0,10.588 -8.53,19.251 -18.953,19.251" /></g></g></g></g></svg>